<?xml version="1.0" encoding="utf-8"?>
<!-- Generator: Adobe Illustrator 16.0.0, SVG Export Plug-In . SVG Version: 6.00 Build 0)  -->
<!DOCTYPE svg PUBLIC "-//W3C//DTD SVG 1.1//EN" "http://www.w3.org/Graphics/SVG/1.1/DTD/svg11.dtd">
<svg version="1.1" id="Layer_1" xmlns="http://www.w3.org/2000/svg" xmlns:xlink="http://www.w3.org/1999/xlink" x="0px" y="0px"
	 width="400px" height="400px" viewBox="0 0 400 400" enable-background="new 0 0 400 400" xml:space="preserve">
<g>
	<g>
		<defs>
			<path id="SVGID_1_" d="M226.816,93.981c4.642,0,8.404,3.763,8.404,8.405c0,4.642-3.763,8.405-8.404,8.405
				c-4.645,0-8.405-3.763-8.405-8.405C218.411,97.745,222.175,93.981,226.816,93.981z M244.799,105.996
				c4.642,0,8.405,3.763,8.405,8.405s-3.764,8.405-8.405,8.405c-4.644,0-8.404-3.763-8.404-8.405S240.157,105.996,244.799,105.996z
				 M256.813,123.981c4.642,0,8.405,3.763,8.405,8.405c0,4.642-3.764,8.405-8.405,8.405c-4.644,0-8.404-3.763-8.404-8.405
				C248.409,127.745,252.172,123.981,256.813,123.981z M261.035,145.198c4.642,0,8.402,3.761,8.402,8.402s-3.761,8.402-8.402,8.402
				s-8.402-3.761-8.402-8.402S256.394,145.198,261.035,145.198z M256.813,166.409c4.642,0,8.405,3.761,8.405,8.405
				s-3.764,8.405-8.405,8.405c-4.644,0-8.404-3.761-8.404-8.405S252.172,166.409,256.813,166.409z M244.799,184.395
				c4.642,0,8.405,3.761,8.405,8.405s-3.764,8.405-8.405,8.405c-4.644,0-8.404-3.761-8.404-8.405S240.157,184.395,244.799,184.395z
				 M226.812,196.411c4.642,0,8.402,3.761,8.402,8.402s-3.761,8.402-8.402,8.402s-8.402-3.761-8.402-8.402
				S222.172,196.411,226.812,196.411z M205.6,200.635c4.642,0,8.402,3.763,8.402,8.405s-3.761,8.399-8.402,8.399
				c-4.641,0-8.402-3.758-8.402-8.399S200.961,200.635,205.6,200.635z M184.386,196.409c4.642,0,8.405,3.761,8.405,8.405
				c0,4.644-3.763,8.405-8.405,8.405c-4.644,0-8.405-3.762-8.405-8.405C175.981,200.169,179.745,196.409,184.386,196.409z
				 M166.403,184.395c4.642,0,8.402,3.761,8.402,8.402s-3.761,8.402-8.402,8.402s-8.402-3.761-8.402-8.402
				S161.764,184.395,166.403,184.395z M154.386,166.409c4.642,0,8.402,3.761,8.402,8.402c0,4.642-3.761,8.403-8.402,8.403
				s-8.402-3.761-8.402-8.403C145.984,170.169,149.747,166.409,154.386,166.409z M150.167,145.198c4.642,0,8.402,3.761,8.402,8.402
				s-3.761,8.402-8.402,8.402s-8.402-3.761-8.402-8.402S145.525,145.198,150.167,145.198z M154.386,123.984
				c4.642,0,8.402,3.761,8.402,8.402c0,4.642-3.761,8.403-8.402,8.403s-8.402-3.761-8.402-8.403
				C145.984,127.745,149.747,123.984,154.386,123.984z M166.403,105.996c4.642,0,8.405,3.763,8.405,8.405s-3.763,8.405-8.405,8.405
				c-4.644,0-8.405-3.763-8.405-8.405S161.762,105.996,166.403,105.996z M184.389,93.984c4.642,0,8.402,3.761,8.402,8.402
				c0,4.642-3.761,8.403-8.402,8.403s-8.402-3.761-8.402-8.403C175.986,97.745,179.75,93.984,184.389,93.984z M220.17,73.582
				c3.752,0,6.788,3.039,6.788,6.787c0,3.749-3.039,6.788-6.788,6.788c-3.748,0-6.784-3.039-6.784-6.788
				C213.383,76.62,216.422,73.582,220.17,73.582z M247.084,84.728c3.749,0,6.787,3.041,6.787,6.789c0,3.749-3.041,6.79-6.787,6.79
				c-3.751,0-6.79-3.041-6.79-6.79C240.294,87.768,243.335,84.728,247.084,84.728z M267.684,105.331
				c3.748,0,6.784,3.039,6.784,6.787c0,3.749-3.038,6.787-6.784,6.787c-3.752,0-6.787-3.038-6.787-6.787
				C260.896,108.37,263.935,105.331,267.684,105.331z M278.834,132.245c3.751,0,6.789,3.041,6.789,6.79
				c0,3.749-3.041,6.79-6.789,6.79c-3.749,0-6.79-3.041-6.79-6.79C272.044,135.286,275.082,132.245,278.834,132.245z
				 M278.834,161.381c3.748,0,6.787,3.038,6.787,6.787s-3.041,6.787-6.787,6.787c-3.747,0-6.787-3.041-6.787-6.787
				C272.047,164.419,275.085,161.381,278.834,161.381z M267.684,188.294c3.748,0,6.784,3.041,6.784,6.787
				c0,3.747-3.038,6.785-6.784,6.785c-3.752,0-6.787-3.038-6.787-6.785C260.896,191.335,263.935,188.294,267.684,188.294z
				 M247.084,208.894c3.749,0,6.787,3.041,6.787,6.79c0,3.748-3.041,6.789-6.787,6.789c-3.751,0-6.79-3.041-6.79-6.789
				C240.294,211.935,243.335,208.894,247.084,208.894z M220.17,220.047c3.752,0,6.788,3.038,6.788,6.787
				c0,3.746-3.039,6.784-6.788,6.784c-3.748,0-6.784-3.04-6.784-6.784C213.383,223.082,216.422,220.047,220.17,220.047z
				 M191.034,220.047c3.749,0,6.788,3.038,6.788,6.787c0,3.746-3.041,6.784-6.788,6.784c-3.746,0-6.787-3.04-6.787-6.784
				C184.247,223.082,187.286,220.047,191.034,220.047z M164.118,208.896c3.749,0,6.788,3.041,6.788,6.787s-3.041,6.784-6.788,6.784
				c-3.746,0-6.787-3.038-6.787-6.784S160.372,208.896,164.118,208.896z M143.519,188.294c3.749,0,6.788,3.041,6.788,6.787
				c0,3.747-3.041,6.785-6.788,6.785c-3.746,0-6.787-3.038-6.787-6.785C136.732,191.335,139.773,188.294,143.519,188.294z
				 M132.369,161.376c3.751,0,6.788,3.039,6.788,6.787c0,3.749-3.039,6.787-6.788,6.787c-3.749,0-6.785-3.041-6.785-6.787
				C125.582,164.415,128.62,161.376,132.369,161.376z M132.369,132.245c3.751,0,6.788,3.039,6.788,6.788
				c0,3.749-3.039,6.787-6.788,6.787c-3.749,0-6.785-3.039-6.785-6.787C125.582,135.283,128.62,132.245,132.369,132.245z
				 M143.519,105.331c3.749,0,6.788,3.039,6.788,6.787c0,3.749-3.041,6.787-6.788,6.787c-3.746,0-6.787-3.038-6.787-6.787
				C136.732,108.37,139.773,105.331,143.519,105.331z M164.118,84.729c3.749,0,6.788,3.039,6.788,6.787
				c0,3.749-3.041,6.787-6.788,6.787c-3.746,0-6.787-3.038-6.787-6.787C157.331,87.768,160.372,84.729,164.118,84.729z
				 M240.345,64.512c2.878,0,5.21,2.333,5.21,5.21c0,2.878-2.332,5.21-5.21,5.21s-5.21-2.333-5.21-5.21
				C235.135,66.845,237.467,64.512,240.345,64.512z M269.798,84.189c2.877,0,5.213,2.333,5.213,5.213s-2.336,5.213-5.213,5.213
				c-2.88,0-5.213-2.333-5.213-5.213S266.918,84.189,269.798,84.189z M289.478,113.645c2.878,0,5.213,2.333,5.213,5.213
				c0,2.88-2.335,5.213-5.213,5.213c-2.88,0-5.215-2.333-5.215-5.213C284.263,115.978,286.598,113.645,289.478,113.645z
				 M296.39,148.387c2.878,0,5.213,2.333,5.213,5.213c0,2.877-2.335,5.213-5.213,5.213c-2.88,0-5.213-2.335-5.213-5.213
				C291.177,150.72,293.51,148.387,296.39,148.387z M289.478,183.132c2.875,0,5.21,2.335,5.21,5.213c0,2.875-2.335,5.208-5.21,5.208
				c-2.878,0-5.213-2.333-5.213-5.208C284.268,185.465,286.6,183.132,289.478,183.132z M269.798,212.588
				c2.875,0,5.21,2.332,5.21,5.209c0,2.879-2.335,5.211-5.21,5.211c-2.878,0-5.211-2.332-5.211-5.211
				C264.587,214.92,266.92,212.588,269.798,212.588z M240.345,232.265c2.88,0,5.213,2.335,5.213,5.213s-2.333,5.213-5.213,5.213
				c-2.878,0-5.213-2.335-5.213-5.213S237.467,232.265,240.345,232.265z M205.6,239.18c2.878,0,5.211,2.332,5.211,5.21
				c0,2.875-2.333,5.21-5.211,5.21c-2.877,0-5.21-2.335-5.21-5.21C200.39,241.512,202.723,239.18,205.6,239.18z M170.857,232.265
				c2.878,0,5.21,2.335,5.21,5.213s-2.333,5.21-5.21,5.21c-2.875,0-5.21-2.332-5.21-5.21S167.98,232.265,170.857,232.265z
				 M141.402,212.585c2.877,0,5.213,2.333,5.213,5.212c0,2.881-2.335,5.213-5.213,5.213c-2.88,0-5.213-2.332-5.213-5.213
				C136.189,214.918,138.522,212.585,141.402,212.585z M121.725,183.132c2.878,0,5.213,2.335,5.213,5.213
				c0,2.88-2.335,5.213-5.213,5.213c-2.877,0-5.212-2.333-5.212-5.213S118.847,183.132,121.725,183.132z M114.813,148.387
				c2.877,0,5.212,2.333,5.212,5.213c0,2.877-2.335,5.213-5.212,5.213c-2.878,0-5.213-2.335-5.213-5.213
				C109.6,150.72,111.935,148.387,114.813,148.387z M121.725,113.643c2.878,0,5.213,2.333,5.213,5.213
				c0,2.88-2.335,5.212-5.213,5.212c-2.877,0-5.212-2.333-5.212-5.212C116.512,115.975,118.847,113.643,121.725,113.643z
				 M141.405,84.192c2.877,0,5.21,2.333,5.21,5.21c0,2.878-2.333,5.21-5.21,5.21s-5.21-2.333-5.21-5.21
				C136.194,86.525,138.527,84.192,141.405,84.192z M170.857,64.51c2.88,0,5.213,2.335,5.213,5.212c0,2.88-2.333,5.213-5.213,5.213
				c-2.877,0-5.212-2.335-5.212-5.213C165.645,66.845,167.978,64.51,170.857,64.51z M191.034,73.579
				c3.749,0,6.788,3.039,6.788,6.787c0,3.749-3.041,6.787-6.788,6.787c-3.746,0-6.787-3.038-6.787-6.787
				C184.247,76.618,187.286,73.579,191.034,73.579z M205.6,89.763c4.642,0,8.402,3.761,8.402,8.402s-3.761,8.402-8.402,8.402
				c-4.641,0-8.402-3.761-8.402-8.402S200.961,89.763,205.6,89.763z M205.6,57.6c2.878,0,5.211,2.333,5.211,5.21
				c0,2.877-2.333,5.21-5.211,5.21c-2.877,0-5.21-2.333-5.21-5.21C200.39,59.935,202.723,57.6,205.6,57.6z"/>
		</defs>
		<clipPath id="SVGID_2_">
			<use xlink:href="#SVGID_1_"  overflow="visible"/>
		</clipPath>
		<g clip-path="url(#SVGID_2_)">
			<defs>
				<rect id="SVGID_3_" x="106.401" y="57.6" width="198.401" height="192"/>
			</defs>
			<clipPath id="SVGID_4_">
				<use xlink:href="#SVGID_3_"  overflow="visible"/>
			</clipPath>
			
				<linearGradient id="SVGID_5_" gradientUnits="userSpaceOnUse" x1="-302.4648" y1="524.832" x2="-302.4648" y2="525.8074" gradientTransform="matrix(198.4008 0 0 192 60214.875 -100709.375)">
				<stop  offset="0" style="stop-color:#EF426F"/>
				<stop  offset="1" style="stop-color:#5C068C"/>
			</linearGradient>
			<rect x="106.401" y="57.6" clip-path="url(#SVGID_4_)" fill="url(#SVGID_5_)" width="198.401" height="192"/>
		</g>
	</g>
	<path d="M309.952,331.8c0,6.72-4.056,10.08-12.168,10.08s-12.168-3.36-12.168-10.08v-6.12h5.04v6.408c0,1.729,0.6,3.072,1.8,4.032
		s2.976,1.44,5.328,1.44c2.352,0,4.128-0.48,5.328-1.44s1.8-2.269,1.8-3.925c0-1.655-0.18-2.976-0.54-3.959
		c-0.36-0.984-1.092-2.028-2.196-3.133l-12.672-12.384c-1.488-1.487-2.508-2.939-3.06-4.355c-0.553-1.416-0.828-3.204-0.828-5.364
		c0-3.216,0.996-5.7,2.987-7.452c1.992-1.752,5.005-2.628,9.036-2.628c7.729,0,11.593,3.36,11.593,10.08v6.12h-5.04v-6.408
		c0-1.728-0.564-3.071-1.692-4.032c-1.128-0.96-2.82-1.439-5.076-1.439s-3.948,0.479-5.076,1.439
		c-1.128,0.961-1.691,2.28-1.691,3.961c0,1.68,0.168,3,0.504,3.959c0.336,0.961,1.08,1.969,2.231,3.024l12.889,12.384
		c1.392,1.536,2.352,3.012,2.88,4.428C309.688,327.852,309.952,329.641,309.952,331.8z M254.296,340.8h-5.04V294h2.16l1.8,4.68
		c2.304-3.84,5.496-5.76,9.576-5.76c7.056,0,10.584,3.36,10.584,10.08v37.8h-5.04V303c0-1.824-0.396-3.24-1.188-4.248
		c-0.793-1.008-2.244-1.512-4.356-1.512s-4.056,0.815-5.832,2.447c-1.776,1.633-2.664,3.217-2.664,4.752V340.8z M217.216,303v11.52
		h13.681V303c0-3.84-2.28-5.76-6.841-5.76C219.496,297.24,217.216,299.16,217.216,303z M230.896,331.8v-3.96h5.039v3.96
		c0,3.216-0.983,5.7-2.951,7.452c-1.969,1.752-4.92,2.628-8.856,2.628c-3.936,0-6.912-0.876-8.928-2.628
		c-2.017-1.752-3.024-4.236-3.024-7.452V303c0-3.216,0.984-5.7,2.952-7.452s4.92-2.628,8.856-2.628c3.936,0,6.912,0.876,8.928,2.628
		s3.023,4.236,3.023,7.452v15.84h-18.72v12.96c0,3.841,2.28,5.761,6.84,5.761C228.616,337.561,230.896,335.641,230.896,331.8z
		 M194.896,330.72v-26.64c0-1.824-0.552-3.24-1.656-4.248c-1.104-1.008-2.688-1.512-4.752-1.512h-6.552v38.16h6.552
		C192.76,336.48,194.896,334.561,194.896,330.72z M188.488,340.8h-11.592V294h11.592c3.744,0,6.588,0.889,8.532,2.664
		s2.916,4.248,2.916,7.416v26.64c0,3.216-0.96,5.7-2.88,7.452S192.28,340.8,188.488,340.8z M162.496,340.8h-5.04V294h5.04V340.8z
		 M136.792,340.8h-7.56L118.648,294h5.04l9.288,41.256l9.36-41.256h5.04L136.792,340.8z M112.168,340.8h-21.24V294h20.52v4.32
		h-15.48v16.56h12.6v4.32h-12.6v17.28h16.2V340.8z"/>
</g>
</svg>
